<?xml version="1.0" encoding="UTF-8" standalone="no"?>
<svg
   xmlns:dc="http://purl.org/dc/elements/1.1/"
   xmlns:cc="http://creativecommons.org/ns#"
   xmlns:rdf="http://www.w3.org/1999/02/22-rdf-syntax-ns#"
   xmlns:svg="http://www.w3.org/2000/svg"
   xmlns="http://www.w3.org/2000/svg"
   width="918px"
   height="587px"
   viewBox="0 0 918 587"
   version="1.1"
   id="svg181">
  <metadata
     id="metadata185">
    <rdf:RDF>
      <cc:Work
         rdf:about="">
        <dc:format>image/svg+xml</dc:format>
        <dc:type
           rdf:resource="http://purl.org/dc/dcmitype/StillImage" />
        <dc:title>diagram-2</dc:title>
      </cc:Work>
    </rdf:RDF>
  </metadata>
  <!-- Generator: Sketch 48.1 (47250) - http://www.bohemiancoding.com/sketch -->
  <title
     id="title2">diagram-2</title>
  <desc
     id="desc4">Created with Sketch.</desc>
  <defs
     id="defs6" />
  <g
     id="g2010">
    <g
       id="g1600">
      <g
         aria-label="Remote cache"
         style="font-weight:normal;font-size:14px;font-family:Lato-Regular, Lato;fill:#02303a;fill-rule:evenodd;stroke:none;stroke-width:1"
         id="Remote-cache">
        <path
           d="m 419.29651,153.827 q 0.588,0 1.036,-0.14 0.455,-0.147 0.756,-0.406 0.308,-0.266 0.462,-0.63 0.154,-0.364 0.154,-0.805 0,-0.896 -0.588,-1.351 -0.588,-0.455 -1.764,-0.455 h -1.484 v 3.787 z m 4.634,5.173 h -1.204 q -0.371,0 -0.546,-0.287 l -2.604,-3.584 q -0.119,-0.168 -0.259,-0.238 -0.133,-0.077 -0.42,-0.077 h -1.029 V 159 h -1.351 v -10.031 h 2.835 q 0.952,0 1.645,0.196 0.693,0.189 1.141,0.553 0.455,0.364 0.672,0.882 0.217,0.511 0.217,1.148 0,0.532 -0.168,0.994 -0.168,0.462 -0.49,0.833 -0.315,0.364 -0.777,0.623 -0.455,0.259 -1.036,0.392 0.259,0.147 0.448,0.427 z"
           style=""
           id="path1462" />
        <path
           d="m 429.28201,154.681 q 0,-0.434 -0.126,-0.791 -0.119,-0.364 -0.357,-0.623 -0.231,-0.266 -0.567,-0.406 -0.336,-0.147 -0.763,-0.147 -0.896,0 -1.421,0.525 -0.518,0.518 -0.644,1.442 z m 1.008,3.325 q -0.231,0.28 -0.553,0.49 -0.322,0.203 -0.693,0.336 -0.364,0.133 -0.756,0.196 -0.392,0.07 -0.777,0.07 -0.735,0 -1.358,-0.245 -0.616,-0.252 -1.071,-0.728 -0.448,-0.483 -0.7,-1.19 -0.252,-0.707 -0.252,-1.624 0,-0.742 0.224,-1.386 0.231,-0.644 0.658,-1.113 0.427,-0.476 1.043,-0.742 0.616,-0.273 1.386,-0.273 0.637,0 1.176,0.217 0.546,0.21 0.938,0.616 0.399,0.399 0.623,0.994 0.224,0.588 0.224,1.344 0,0.294 -0.063,0.392 -0.063,0.098 -0.238,0.098 h -4.739 q 0.021,0.672 0.182,1.169 0.168,0.497 0.462,0.833 0.294,0.329 0.7,0.497 0.406,0.161 0.91,0.161 0.469,0 0.805,-0.105 0.343,-0.112 0.588,-0.238 0.245,-0.126 0.406,-0.231 0.168,-0.112 0.287,-0.112 0.154,0 0.238,0.119 z"
           style=""
           id="path1464" />
        <path
           d="m 431.91882,159 v -7.091 h 0.749 q 0.266,0 0.329,0.259 l 0.091,0.728 q 0.392,-0.483 0.882,-0.791 0.49,-0.308 1.134,-0.308 0.714,0 1.155,0.399 0.448,0.399 0.644,1.078 0.154,-0.385 0.392,-0.665 0.245,-0.28 0.546,-0.462 0.301,-0.182 0.637,-0.266 0.343,-0.084 0.693,-0.084 0.56,0 0.994,0.182 0.441,0.175 0.742,0.518 0.308,0.343 0.469,0.847 0.161,0.497 0.161,1.141 V 159 h -1.253 v -4.515 q 0,-0.833 -0.364,-1.26 -0.364,-0.434 -1.05,-0.434 -0.308,0 -0.588,0.112 -0.273,0.105 -0.483,0.315 -0.21,0.21 -0.336,0.532 -0.119,0.315 -0.119,0.735 V 159 h -1.253 v -4.515 q 0,-0.854 -0.343,-1.274 -0.343,-0.42 -1.001,-0.42 -0.462,0 -0.854,0.252 -0.392,0.245 -0.721,0.672 V 159 Z"
           style=""
           id="path1466" />
        <path
           d="m 446.41954,151.797 q 0.777,0 1.4,0.259 0.623,0.259 1.064,0.735 0.441,0.476 0.672,1.155 0.238,0.672 0.238,1.505 0,0.84 -0.238,1.512 -0.231,0.672 -0.672,1.148 -0.441,0.476 -1.064,0.735 -0.623,0.252 -1.4,0.252 -0.784,0 -1.414,-0.252 -0.623,-0.259 -1.064,-0.735 -0.441,-0.476 -0.679,-1.148 -0.231,-0.672 -0.231,-1.512 0,-0.833 0.231,-1.505 0.238,-0.679 0.679,-1.155 0.441,-0.476 1.064,-0.735 0.63,-0.259 1.414,-0.259 z m 0,6.328 q 1.05,0 1.568,-0.7 0.518,-0.707 0.518,-1.967 0,-1.267 -0.518,-1.974 -0.518,-0.707 -1.568,-0.707 -0.532,0 -0.931,0.182 -0.392,0.182 -0.658,0.525 -0.259,0.343 -0.392,0.847 -0.126,0.497 -0.126,1.127 0,1.26 0.518,1.967 0.525,0.7 1.589,0.7 z"
           style=""
           id="path1468" />
        <path
           d="m 453.40051,159.112 q -0.84,0 -1.295,-0.469 -0.448,-0.469 -0.448,-1.351 v -4.34 h -0.854 q -0.112,0 -0.189,-0.063 -0.077,-0.07 -0.077,-0.21 v -0.497 l 1.162,-0.147 0.287,-2.191 q 0.021,-0.105 0.091,-0.168 0.077,-0.07 0.196,-0.07 h 0.63 v 2.443 h 2.051 v 0.903 h -2.051 v 4.256 q 0,0.448 0.217,0.665 0.217,0.217 0.56,0.217 0.196,0 0.336,-0.049 0.147,-0.056 0.252,-0.119 0.105,-0.063 0.175,-0.112 0.077,-0.056 0.133,-0.056 0.098,0 0.175,0.119 l 0.364,0.595 q -0.322,0.301 -0.777,0.476 -0.455,0.168 -0.938,0.168 z"
           style=""
           id="path1470" />
        <path
           d="m 460.97342,154.681 q 0,-0.434 -0.126,-0.791 -0.119,-0.364 -0.357,-0.623 -0.231,-0.266 -0.567,-0.406 -0.336,-0.147 -0.763,-0.147 -0.896,0 -1.421,0.525 -0.518,0.518 -0.644,1.442 z m 1.008,3.325 q -0.231,0.28 -0.553,0.49 -0.322,0.203 -0.693,0.336 -0.364,0.133 -0.756,0.196 -0.392,0.07 -0.777,0.07 -0.735,0 -1.358,-0.245 -0.616,-0.252 -1.071,-0.728 -0.448,-0.483 -0.7,-1.19 -0.252,-0.707 -0.252,-1.624 0,-0.742 0.224,-1.386 0.231,-0.644 0.658,-1.113 0.427,-0.476 1.043,-0.742 0.616,-0.273 1.386,-0.273 0.637,0 1.176,0.217 0.546,0.21 0.938,0.616 0.399,0.399 0.623,0.994 0.224,0.588 0.224,1.344 0,0.294 -0.063,0.392 -0.063,0.098 -0.238,0.098 h -4.739 q 0.021,0.672 0.182,1.169 0.168,0.497 0.462,0.833 0.294,0.329 0.7,0.497 0.406,0.161 0.91,0.161 0.469,0 0.805,-0.105 0.343,-0.112 0.588,-0.238 0.245,-0.126 0.406,-0.231 0.168,-0.112 0.287,-0.112 0.154,0 0.238,0.119 z"
           style=""
           id="path1472" />
        <path
           d="m 472.12726,153.169 q -0.056,0.077 -0.112,0.119 -0.056,0.042 -0.154,0.042 -0.105,0 -0.231,-0.084 -0.126,-0.091 -0.315,-0.196 -0.182,-0.105 -0.455,-0.189 -0.266,-0.091 -0.658,-0.091 -0.525,0 -0.924,0.189 -0.399,0.182 -0.672,0.532 -0.266,0.35 -0.406,0.847 -0.133,0.497 -0.133,1.113 0,0.644 0.147,1.148 0.147,0.497 0.413,0.84 0.273,0.336 0.651,0.518 0.385,0.175 0.861,0.175 0.455,0 0.749,-0.105 0.294,-0.112 0.483,-0.245 0.196,-0.133 0.322,-0.238 0.133,-0.112 0.259,-0.112 0.154,0 0.238,0.119 l 0.35,0.455 q -0.231,0.287 -0.525,0.49 -0.294,0.203 -0.637,0.343 -0.336,0.133 -0.707,0.196 -0.371,0.063 -0.756,0.063 -0.665,0 -1.239,-0.245 -0.567,-0.245 -0.987,-0.707 -0.42,-0.469 -0.658,-1.148 -0.238,-0.679 -0.238,-1.547 0,-0.791 0.217,-1.463 0.224,-0.672 0.644,-1.155 0.427,-0.49 1.043,-0.763 0.623,-0.273 1.428,-0.273 0.749,0 1.316,0.245 0.574,0.238 1.015,0.679 z"
           style=""
           id="path1474" />
        <path
           d="m 477.70714,155.808 q -0.861,0.028 -1.47,0.14 -0.602,0.105 -0.987,0.28 -0.378,0.175 -0.553,0.413 -0.168,0.238 -0.168,0.532 0,0.28 0.091,0.483 0.091,0.203 0.245,0.336 0.161,0.126 0.371,0.189 0.217,0.056 0.462,0.056 0.329,0 0.602,-0.063 0.273,-0.07 0.511,-0.196 0.245,-0.126 0.462,-0.301 0.224,-0.175 0.434,-0.399 z m -4.025,-2.898 q 0.588,-0.567 1.267,-0.847 0.679,-0.28 1.505,-0.28 0.595,0 1.057,0.196 0.462,0.196 0.777,0.546 0.315,0.35 0.476,0.847 0.161,0.497 0.161,1.092 V 159 h -0.553 q -0.182,0 -0.28,-0.056 -0.098,-0.063 -0.154,-0.238 l -0.14,-0.672 q -0.28,0.259 -0.546,0.462 -0.266,0.196 -0.56,0.336 -0.294,0.133 -0.63,0.203 -0.329,0.077 -0.735,0.077 -0.413,0 -0.777,-0.112 -0.364,-0.119 -0.637,-0.35 -0.266,-0.231 -0.427,-0.581 -0.154,-0.357 -0.154,-0.84 0,-0.42 0.231,-0.805 0.231,-0.392 0.749,-0.693 0.518,-0.301 1.351,-0.49 0.833,-0.196 2.044,-0.224 v -0.553 q 0,-0.826 -0.357,-1.246 -0.357,-0.427 -1.043,-0.427 -0.462,0 -0.777,0.119 -0.308,0.112 -0.539,0.259 -0.224,0.14 -0.392,0.259 -0.161,0.112 -0.322,0.112 -0.126,0 -0.217,-0.063 -0.091,-0.07 -0.154,-0.168 z"
           style=""
           id="path1476" />
        <path
           d="m 485.74445,153.169 q -0.056,0.077 -0.112,0.119 -0.056,0.042 -0.154,0.042 -0.105,0 -0.231,-0.084 -0.126,-0.091 -0.315,-0.196 -0.182,-0.105 -0.455,-0.189 -0.266,-0.091 -0.658,-0.091 -0.525,0 -0.924,0.189 -0.399,0.182 -0.672,0.532 -0.266,0.35 -0.406,0.847 -0.133,0.497 -0.133,1.113 0,0.644 0.147,1.148 0.147,0.497 0.413,0.84 0.273,0.336 0.651,0.518 0.385,0.175 0.861,0.175 0.455,0 0.749,-0.105 0.294,-0.112 0.483,-0.245 0.196,-0.133 0.322,-0.238 0.133,-0.112 0.259,-0.112 0.154,0 0.238,0.119 l 0.35,0.455 q -0.231,0.287 -0.525,0.49 -0.294,0.203 -0.637,0.343 -0.336,0.133 -0.707,0.196 -0.371,0.063 -0.756,0.063 -0.665,0 -1.239,-0.245 -0.567,-0.245 -0.987,-0.707 -0.42,-0.469 -0.658,-1.148 -0.238,-0.679 -0.238,-1.547 0,-0.791 0.217,-1.463 0.224,-0.672 0.644,-1.155 0.427,-0.49 1.043,-0.763 0.623,-0.273 1.428,-0.273 0.749,0 1.316,0.245 0.574,0.238 1.015,0.679 z"
           style=""
           id="path1478" />
        <path
           d="m 488.73432,152.854 q 0.455,-0.483 1.008,-0.77 0.553,-0.287 1.274,-0.287 0.581,0 1.022,0.196 0.448,0.189 0.742,0.546 0.301,0.35 0.455,0.847 0.154,0.497 0.154,1.099 V 159 h -1.253 v -4.515 q 0,-0.805 -0.371,-1.246 -0.364,-0.448 -1.113,-0.448 -0.553,0 -1.036,0.266 -0.476,0.266 -0.882,0.721 V 159 h -1.253 v -10.311 h 1.253 z"
           style=""
           id="path1480" />
        <path
           d="m 500.04764,154.681 q 0,-0.434 -0.126,-0.791 -0.119,-0.364 -0.357,-0.623 -0.231,-0.266 -0.567,-0.406 -0.336,-0.147 -0.763,-0.147 -0.896,0 -1.421,0.525 -0.518,0.518 -0.644,1.442 z m 1.008,3.325 q -0.231,0.28 -0.553,0.49 -0.322,0.203 -0.693,0.336 -0.364,0.133 -0.756,0.196 -0.392,0.07 -0.777,0.07 -0.735,0 -1.358,-0.245 -0.616,-0.252 -1.071,-0.728 -0.448,-0.483 -0.7,-1.19 -0.252,-0.707 -0.252,-1.624 0,-0.742 0.224,-1.386 0.231,-0.644 0.658,-1.113 0.427,-0.476 1.043,-0.742 0.616,-0.273 1.386,-0.273 0.637,0 1.176,0.217 0.546,0.21 0.938,0.616 0.399,0.399 0.623,0.994 0.224,0.588 0.224,1.344 0,0.294 -0.063,0.392 -0.063,0.098 -0.238,0.098 h -4.739 q 0.021,0.672 0.182,1.169 0.168,0.497 0.462,0.833 0.294,0.329 0.7,0.497 0.406,0.161 0.91,0.161 0.469,0 0.805,-0.105 0.343,-0.112 0.588,-0.238 0.245,-0.126 0.406,-0.231 0.168,-0.112 0.287,-0.112 0.154,0 0.238,0.119 z"
           style=""
           id="path1482" />
      </g>
      <polygon
         id="Polygon-Copy-2"
         points="404,189.5 404,124.5 459,92 514,124.5 514,189.5 459,222 "
         style="fill:none;fill-rule:evenodd;stroke:#02303a;stroke-width:1;stroke-opacity:1" />
    </g>
    <rect
       style="fill:none;fill-rule:nonzero;stroke:#02303a;stroke-width:1"
       rx="5"
       height="182"
       width="254"
       y="53"
       x="332"
       id="Rectangle-path" />
    <g
       style="font-weight:normal;font-size:12px;font-family:Lato-Regular, Lato;fill:#02303a;fill-rule:evenodd;stroke:none;stroke-width:1"
       font-weight="normal"
       font-size="12"
       transform="translate(344,63)"
       id="Group">
      <g
         id="Gradle-Enterprise">
        <g
           id="text15"
           style=""
           aria-label="Gradle Enterprise">
          <path
             id="path1485"
             style=""
             d="m 8.082,7.866 v 3.3 Q 7.434,11.634 6.696,11.868 5.964,12.096 5.088,12.096 4.05,12.096 3.216,11.778 2.382,11.454 1.788,10.878 1.2,10.296 0.882,9.486 0.564,8.676 0.564,7.704 0.564,6.72 0.87,5.91 1.182,5.1 1.752,4.524 2.322,3.942 3.138,3.624 3.954,3.306 4.962,3.306 5.472,3.306 5.91,3.384 6.348,3.456 6.72,3.6 7.092,3.738 7.41,3.942 7.728,4.14 8.004,4.392 L 7.674,4.92 Q 7.596,5.04 7.47,5.076 7.35,5.106 7.2,5.016 7.056,4.932 6.87,4.812 6.684,4.692 6.414,4.584 6.15,4.47 5.784,4.392 5.424,4.314 4.926,4.314 4.2,4.314 3.612,4.554 3.024,4.788 2.61,5.232 2.196,5.67 1.974,6.3 1.752,6.924 1.752,7.704 q 0,0.81 0.228,1.452 0.234,0.636 0.66,1.086 0.432,0.444 1.044,0.678 0.612,0.234 1.374,0.234 0.6,0 1.062,-0.132 0.468,-0.138 0.912,-0.378 V 8.754 H 5.694 Q 5.58,8.754 5.508,8.688 5.442,8.622 5.442,8.526 v -0.66 z" />
          <path
             id="path1487"
             style=""
             d="m 10.531875,7.14 q 0.288,-0.624 0.708,-0.972 0.42,-0.354 1.026,-0.354 0.192,0 0.366,0.042 0.18,0.042 0.318,0.132 l -0.078,0.798 q -0.036,0.15 -0.18,0.15 -0.084,0 -0.246,-0.036 -0.162,-0.036 -0.366,-0.036 -0.288,0 -0.516,0.084 -0.222,0.084 -0.402,0.252 -0.174,0.162 -0.318,0.408 -0.138,0.24 -0.252,0.552 V 12 h -1.074 V 5.922 h 0.612 q 0.174,0 0.24,0.066 0.066,0.066 0.09,0.228 z" />
          <path
             id="path1489"
             style=""
             d="m 17.0775,9.264 q -0.738,0.024 -1.26,0.12 -0.516,0.09 -0.846,0.24 -0.324,0.15 -0.474,0.354 -0.144,0.204 -0.144,0.456 0,0.24 0.078,0.414 0.078,0.174 0.21,0.288 0.138,0.108 0.318,0.162 0.186,0.048 0.396,0.048 0.282,0 0.516,-0.054 0.234,-0.06 0.438,-0.168 0.21,-0.108 0.396,-0.258 0.192,-0.15 0.372,-0.342 z m -3.45,-2.484 q 0.504,-0.486 1.086,-0.726 0.582,-0.24 1.29,-0.24 0.51,0 0.906,0.168 0.396,0.168 0.666,0.468 0.27,0.3 0.408,0.726 0.138,0.426 0.138,0.936 V 12 h -0.474 q -0.156,0 -0.24,-0.048 -0.084,-0.054 -0.132,-0.204 l -0.12,-0.576 q -0.24,0.222 -0.468,0.396 -0.228,0.168 -0.48,0.288 -0.252,0.114 -0.54,0.174 -0.282,0.066 -0.63,0.066 -0.354,0 -0.666,-0.096 -0.312,-0.102 -0.546,-0.3 -0.228,-0.198 -0.366,-0.498 -0.132,-0.306 -0.132,-0.72 0,-0.36 0.198,-0.69 0.198,-0.336 0.642,-0.594 0.444,-0.258 1.158,-0.42 0.714,-0.168 1.752,-0.192 V 8.112 q 0,-0.708 -0.306,-1.068 -0.306,-0.366 -0.894,-0.366 -0.396,0 -0.666,0.102 -0.264,0.096 -0.462,0.222 -0.192,0.12 -0.336,0.222 -0.138,0.096 -0.276,0.096 -0.108,0 -0.186,-0.054 -0.078,-0.06 -0.132,-0.144 z" />
          <path
             id="path1491"
             style=""
             d="m 23.696625,7.368 q -0.3,-0.402 -0.648,-0.558 -0.348,-0.162 -0.78,-0.162 -0.846,0 -1.302,0.606 -0.456,0.606 -0.456,1.728 0,0.594 0.102,1.02 0.102,0.42 0.3,0.696 0.198,0.27 0.486,0.396 0.288,0.126 0.654,0.126 0.528,0 0.918,-0.24 0.396,-0.24 0.726,-0.678 z m 1.068,-4.206 V 12 h -0.636 q -0.228,0 -0.288,-0.222 l -0.096,-0.738 q -0.39,0.468 -0.888,0.756 -0.498,0.288 -1.152,0.288 -0.522,0 -0.948,-0.198 -0.426,-0.204 -0.726,-0.594 -0.3,-0.39 -0.462,-0.972 -0.162,-0.582 -0.162,-1.338 0,-0.672 0.18,-1.248 0.18,-0.582 0.516,-1.008 0.336,-0.426 0.822,-0.666 0.492,-0.246 1.104,-0.246 0.558,0 0.954,0.192 0.402,0.186 0.714,0.522 V 3.162 Z" />
          <path
             id="path1493"
             style=""
             d="M 27.567187,3.162 V 12 H 26.499188 V 3.162 Z" />
          <path
             id="path1495"
             style=""
             d="m 33.367125,8.298 q 0,-0.372 -0.108,-0.678 -0.102,-0.312 -0.306,-0.534 -0.198,-0.228 -0.486,-0.348 -0.288,-0.126 -0.654,-0.126 -0.768,0 -1.218,0.45 -0.444,0.444 -0.552,1.236 z m 0.864,2.85 q -0.198,0.24 -0.474,0.42 -0.276,0.174 -0.594,0.288 -0.312,0.114 -0.648,0.168 -0.336,0.06 -0.666,0.06 -0.63,0 -1.164,-0.21 -0.528,-0.216 -0.918,-0.624 -0.384,-0.414 -0.6,-1.02 -0.216,-0.606 -0.216,-1.392 0,-0.636 0.192,-1.188 0.198,-0.552 0.564,-0.954 0.366,-0.408 0.894,-0.636 0.528,-0.234 1.188,-0.234 0.546,0 1.008,0.186 0.468,0.18 0.804,0.528 0.342,0.342 0.534,0.852 0.192,0.504 0.192,1.152 0,0.252 -0.054,0.336 -0.054,0.084 -0.204,0.084 h -4.062 q 0.018,0.576 0.156,1.002 0.144,0.426 0.396,0.714 0.252,0.282 0.6,0.426 0.348,0.138 0.78,0.138 0.402,0 0.69,-0.09 0.294,-0.096 0.504,-0.204 0.21,-0.108 0.348,-0.198 0.144,-0.096 0.246,-0.096 0.132,0 0.204,0.102 z" />
          <path
             id="path1497"
             style=""
             d="m 44.253562,11.052 -0.006,0.948 h -5.298 V 3.402 h 5.298 V 4.35 h -4.134 v 2.856 h 3.348 v 0.912 h -3.348 v 2.934 z" />
          <path
             id="path1499"
             style=""
             d="m 46.479,6.804 q 0.198,-0.222 0.42,-0.402 0.222,-0.18 0.468,-0.306 0.252,-0.132 0.528,-0.198 0.282,-0.072 0.606,-0.072 0.498,0 0.876,0.168 0.384,0.162 0.636,0.468 0.258,0.3 0.39,0.726 0.132,0.426 0.132,0.942 V 12 H 49.461 V 8.13 q 0,-0.69 -0.318,-1.068 -0.312,-0.384 -0.954,-0.384 -0.474,0 -0.888,0.228 -0.408,0.228 -0.756,0.618 V 12 H 45.471 V 5.922 h 0.642 q 0.228,0 0.282,0.222 z" />
          <path
             id="path1501"
             style=""
             d="m 53.946375,12.096 q -0.72,0 -1.11,-0.402 -0.384,-0.402 -0.384,-1.158 v -3.72 h -0.732 q -0.096,0 -0.162,-0.054 -0.066,-0.06 -0.066,-0.18 V 6.156 l 0.996,-0.126 0.246,-1.878 q 0.018,-0.09 0.078,-0.144 0.066,-0.06 0.168,-0.06 h 0.54 v 2.094 h 1.758 v 0.774 h -1.758 v 3.648 q 0,0.384 0.186,0.57 0.186,0.186 0.48,0.186 0.168,0 0.288,-0.042 0.126,-0.048 0.216,-0.102 0.09,-0.054 0.15,-0.096 0.066,-0.048 0.114,-0.048 0.084,0 0.15,0.102 l 0.312,0.51 q -0.276,0.258 -0.666,0.408 -0.39,0.144 -0.804,0.144 z" />
          <path
             id="path1503"
             style=""
             d="m 60.437438,8.298 q 0,-0.372 -0.108001,-0.678 -0.102,-0.312 -0.306,-0.534 -0.198,-0.228 -0.485999,-0.348 -0.288001,-0.126 -0.654001,-0.126 -0.768,0 -1.217999,0.45 -0.444001,0.444 -0.552,1.236 z m 0.863999,2.85 q -0.198,0.24 -0.473999,0.42 -0.276001,0.174 -0.594001,0.288 -0.312,0.114 -0.648,0.168 -0.336,0.06 -0.666,0.06 -0.63,0 -1.164,-0.21 -0.528,-0.216 -0.918,-0.624 -0.384,-0.414 -0.6,-1.02 -0.216,-0.606 -0.216,-1.392 0,-0.636 0.192,-1.188 0.198,-0.552 0.564,-0.954 0.366,-0.408 0.894,-0.636 0.528001,-0.234 1.188,-0.234 0.546,0 1.008,0.186 0.468,0.18 0.804,0.528 0.342001,0.342 0.534001,0.852 0.192,0.504 0.192,1.152 0,0.252 -0.054,0.336 -0.054,0.084 -0.204,0.084 h -4.061999 q 0.018,0.576 0.155999,1.002 0.144,0.426 0.396001,0.714 0.251999,0.282 0.6,0.426 0.348,0.138 0.779999,0.138 0.402,0 0.690001,-0.09 0.293999,-0.096 0.503999,-0.204 0.21,-0.108 0.348,-0.198 0.144,-0.096 0.246,-0.096 0.132,0 0.204001,0.102 z" />
          <path
             id="path1505"
             style=""
             d="m 63.711562,7.14 q 0.288,-0.624 0.708,-0.972 0.42,-0.354 1.026,-0.354 0.192001,0 0.366,0.042 0.18,0.042 0.318001,0.132 l -0.078,0.798 q -0.036,0.15 -0.180001,0.15 -0.084,0 -0.246,-0.036 -0.162,-0.036 -0.366,-0.036 -0.287999,0 -0.516,0.084 -0.221999,0.084 -0.402,0.252 -0.173999,0.162 -0.318,0.408 -0.138,0.24 -0.251999,0.552 V 12 h -1.074 V 5.922 h 0.611999 q 0.174,0 0.24,0.066 0.066,0.066 0.09,0.228 z" />
          <path
             id="path1507"
             style=""
             d="m 68.130938,10.536 q 0.293999,0.396 0.641999,0.558 0.348,0.162 0.78,0.162 0.852001,0 1.308001,-0.606 0.455999,-0.606 0.455999,-1.728 0,-0.594 -0.107999,-1.02 -0.102001,-0.426 -0.3,-0.696 -0.198001,-0.276 -0.486,-0.402 -0.288,-0.126 -0.654001,-0.126 -0.521999,0 -0.918,0.24 -0.39,0.24 -0.719999,0.678 z m -0.054,-3.672 q 0.384,-0.474 0.888001,-0.762 0.503999,-0.288 1.152,-0.288 0.527999,0 0.953999,0.204 0.426001,0.198 0.726,0.594 0.3,0.39 0.462001,0.972 0.161999,0.582 0.161999,1.338 0,0.672 -0.18,1.254 -0.18,0.576 -0.522,1.002 -0.336,0.42 -0.827999,0.666 -0.486,0.24 -1.098001,0.24 -0.558,0 -0.96,-0.186 -0.396,-0.192 -0.701999,-0.528 v 2.688 h -1.074 V 5.922 h 0.641999 q 0.228,0 0.282,0.222 z" />
          <path
             id="path1509"
             style=""
             d="m 74.7975,7.14 q 0.288,-0.624 0.708,-0.972 0.42,-0.354 1.026,-0.354 0.192,0 0.366,0.042 0.18,0.042 0.318,0.132 l -0.078,0.798 q -0.036,0.15 -0.18,0.15 -0.084,0 -0.246,-0.036 -0.162,-0.036 -0.366,-0.036 -0.288,0 -0.516,0.084 -0.222,0.084 -0.402,0.252 -0.174,0.162 -0.318,0.408 -0.138,0.24 -0.252,0.552 V 12 h -1.074 V 5.922 h 0.612 q 0.174,0 0.24,0.066 0.066,0.066 0.09,0.228 z" />
          <path
             id="path1511"
             style=""
             d="M 79.270875,5.922 V 12 h -1.068 V 5.922 Z m 0.228,-1.908 q 0,0.156 -0.066,0.294 -0.06,0.132 -0.168,0.24 -0.102,0.102 -0.246,0.162 -0.138,0.06 -0.294,0.06 -0.156,0 -0.294,-0.06 -0.132,-0.06 -0.234,-0.162 -0.102,-0.108 -0.162,-0.24 -0.06,-0.138 -0.06,-0.294 0,-0.156 0.06,-0.294 0.06,-0.144 0.162,-0.246 0.102,-0.108 0.234,-0.168 0.138,-0.06 0.294,-0.06 0.156,0 0.294,0.06 0.144,0.06 0.246,0.168 0.108,0.102 0.168,0.246 0.066,0.138 0.066,0.294 z" />
          <path
             id="path1513"
             style=""
             d="m 84.565687,6.924 q -0.072,0.132 -0.221999,0.132 -0.09,0 -0.204001,-0.066 -0.113999,-0.066 -0.282,-0.144 -0.161999,-0.084 -0.39,-0.15 -0.227999,-0.072 -0.539999,-0.072 -0.270001,0 -0.486001,0.072 -0.215999,0.066 -0.372,0.186 -0.15,0.12 -0.233999,0.282 -0.078,0.156 -0.078,0.342 0,0.234 0.131999,0.39 0.138,0.156 0.36,0.27 0.222001,0.114 0.504,0.204 0.282,0.084 0.576001,0.186 0.3,0.096 0.581999,0.216 0.282,0.12 0.504001,0.3 0.221999,0.18 0.354,0.444 0.137999,0.258 0.137999,0.624 0,0.42 -0.149999,0.78 -0.150001,0.354 -0.444001,0.618 -0.293999,0.258 -0.719999,0.408 -0.426001,0.15 -0.984,0.15 -0.636001,0 -1.152,-0.204 -0.516001,-0.21 -0.876001,-0.534 l 0.252,-0.408 q 0.048,-0.078 0.114,-0.12 0.066,-0.042 0.168001,-0.042 0.107999,0 0.228,0.084 0.12,0.084 0.287999,0.186 0.174001,0.102 0.42,0.186 0.246,0.084 0.612,0.084 0.312001,0 0.546,-0.078 0.234,-0.084 0.390001,-0.222 0.155999,-0.138 0.227999,-0.318 0.078,-0.18 0.078,-0.384 0,-0.252 -0.138,-0.414 -0.131999,-0.168 -0.354,-0.282 -0.222,-0.12 -0.509999,-0.204 -0.282,-0.09 -0.582001,-0.186 -0.294,-0.096 -0.581999,-0.216 -0.282,-0.126 -0.504001,-0.312 -0.221999,-0.186 -0.36,-0.456 -0.132,-0.276 -0.132,-0.666 0,-0.348 0.144,-0.666 0.144001,-0.324 0.42,-0.564 0.276,-0.246 0.678,-0.39 0.402,-0.144 0.918001,-0.144 0.599999,0 1.074,0.192 0.48,0.186 0.828,0.516 z" />
          <path
             id="path1515"
             style=""
             d="m 90.296813,8.298 q 0,-0.372 -0.108001,-0.678 -0.101999,-0.312 -0.306,-0.534 -0.198,-0.228 -0.486,-0.348 -0.288,-0.126 -0.654,-0.126 -0.768,0 -1.218,0.45 -0.444,0.444 -0.551999,1.236 z m 0.864,2.85 q -0.198001,0.24 -0.474,0.42 -0.276,0.174 -0.594001,0.288 -0.312,0.114 -0.648,0.168 -0.336,0.06 -0.666,0.06 -0.629999,0 -1.164,-0.21 -0.528,-0.216 -0.918,-0.624 -0.383999,-0.414 -0.6,-1.02 -0.215999,-0.606 -0.215999,-1.392 0,-0.636 0.191999,-1.188 0.198001,-0.552 0.564001,-0.954 0.366,-0.408 0.893999,-0.636 0.528001,-0.234 1.188,-0.234 0.546001,0 1.008,0.186 0.468,0.18 0.804,0.528 0.342,0.342 0.534001,0.852 0.191999,0.504 0.191999,1.152 0,0.252 -0.054,0.336 -0.054,0.084 -0.204,0.084 h -4.061999 q 0.018,0.576 0.155999,1.002 0.144,0.426 0.396,0.714 0.252001,0.282 0.600001,0.426 0.348,0.138 0.78,0.138 0.402,0 0.69,-0.09 0.293999,-0.096 0.504,-0.204 0.209999,-0.108 0.348,-0.198 0.143999,-0.096 0.245999,-0.096 0.132001,0 0.204,0.102 z" />
        </g>
      </g>
    </g>
  </g>
  <rect
     id="Rectangle-path-Copy"
     x="31"
     y="273"
     width="410"
     height="276"
     rx="5"
     style="fill:none;fill-rule:nonzero;stroke:#02303a;stroke-width:1" />
  <path
     id="path1335"
     style="font-weight:normal;font-size:medium;font-family:Lato-Regular, Lato;fill:#02303a;fill-opacity:1;fill-rule:evenodd;stroke:none;stroke-width:1"
     d="M 331.972,406.859 V 408 h -5.691 v -10.031 h 1.351 v 8.89 z" />
  <path
     id="path1337"
     style="font-weight:normal;font-size:medium;font-family:Lato-Regular, Lato;fill:#02303a;fill-opacity:1;fill-rule:evenodd;stroke:none;stroke-width:1"
     d="m 335.64787,400.797 q 0.777,0 1.4,0.259 0.62301,0.259 1.064,0.735 0.44101,0.476 0.67201,1.155 0.238,0.672 0.238,1.505 0,0.84 -0.238,1.512 -0.231,0.672 -0.67201,1.148 -0.44099,0.476 -1.064,0.735 -0.623,0.252 -1.4,0.252 -0.784,0 -1.414,-0.252 -0.62299,-0.259 -1.064,-0.735 -0.44099,-0.476 -0.67899,-1.148 -0.231,-0.672 -0.231,-1.512 0,-0.833 0.231,-1.505 0.238,-0.679 0.67899,-1.155 0.44101,-0.476 1.064,-0.735 0.63,-0.259 1.414,-0.259 z m 0,6.328 q 1.05,0 1.568,-0.7 0.518,-0.707 0.518,-1.967 0,-1.267 -0.518,-1.974 -0.518,-0.707 -1.568,-0.707 -0.53199,0 -0.93099,0.182 -0.392,0.182 -0.65801,0.525 -0.259,0.343 -0.392,0.847 -0.12599,0.497 -0.12599,1.127 0,1.26 0.51799,1.967 0.525,0.7 1.589,0.7 z" />
  <path
     id="path1339"
     style="font-weight:normal;font-size:medium;font-family:Lato-Regular, Lato;fill:#02303a;fill-opacity:1;fill-rule:evenodd;stroke:none;stroke-width:1"
     d="m 345.52356,402.169 q -0.056,0.077 -0.112,0.119 -0.056,0.042 -0.154,0.042 -0.105,0 -0.231,-0.084 -0.126,-0.091 -0.315,-0.196 -0.182,-0.105 -0.455,-0.189 -0.266,-0.091 -0.658,-0.091 -0.525,0 -0.924,0.189 -0.399,0.182 -0.672,0.532 -0.266,0.35 -0.406,0.847 -0.133,0.497 -0.133,1.113 0,0.644 0.147,1.148 0.147,0.497 0.413,0.84 0.273,0.336 0.651,0.518 0.385,0.175 0.861,0.175 0.455,0 0.749,-0.105 0.294,-0.112 0.483,-0.245 0.196,-0.133 0.322,-0.238 0.133,-0.112 0.259,-0.112 0.154,0 0.238,0.119 l 0.35,0.455 q -0.231,0.287 -0.525,0.49 -0.294,0.203 -0.637,0.343 -0.336,0.133 -0.707,0.196 -0.371,0.063 -0.756,0.063 -0.665,0 -1.239,-0.245 -0.567,-0.245 -0.987,-0.707 -0.42,-0.469 -0.658,-1.148 -0.238,-0.679 -0.238,-1.547 0,-0.791 0.217,-1.463 0.224,-0.672 0.644,-1.155 0.427,-0.49 1.043,-0.763 0.623,-0.273 1.428,-0.273 0.749,0 1.316,0.245 0.574,0.238 1.015,0.679 z" />
  <path
     id="path1341"
     style="font-weight:normal;font-size:medium;font-family:Lato-Regular, Lato;fill:#02303a;fill-opacity:1;fill-rule:evenodd;stroke:none;stroke-width:1"
     d="m 351.10344,404.808 q -0.861,0.028 -1.47,0.14 -0.602,0.105 -0.987,0.28 -0.378,0.175 -0.553,0.413 -0.168,0.238 -0.168,0.532 0,0.28 0.091,0.483 0.091,0.203 0.245,0.336 0.161,0.126 0.371,0.189 0.217,0.056 0.462,0.056 0.329,0 0.602,-0.063 0.273,-0.07 0.511,-0.196 0.245,-0.126 0.462,-0.301 0.224,-0.175 0.434,-0.399 z m -4.025,-2.898 q 0.588,-0.567 1.267,-0.847 0.679,-0.28 1.505,-0.28 0.595,0 1.057,0.196 0.462,0.196 0.777,0.546 0.315,0.35 0.476,0.847 0.161,0.497 0.161,1.092 V 408 h -0.553 q -0.182,0 -0.28,-0.056 -0.098,-0.063 -0.154,-0.238 l -0.14,-0.672 q -0.28,0.259 -0.546,0.462 -0.266,0.196 -0.56,0.336 -0.294,0.133 -0.63,0.203 -0.329,0.077 -0.735,0.077 -0.413,0 -0.777,-0.112 -0.364,-0.119 -0.637,-0.35 -0.266,-0.231 -0.427,-0.581 -0.154,-0.357 -0.154,-0.84 0,-0.42 0.231,-0.805 0.231,-0.392 0.749,-0.693 0.518,-0.301 1.351,-0.49 0.833,-0.196 2.044,-0.224 v -0.553 q 0,-0.826 -0.357,-1.246 -0.357,-0.427 -1.043,-0.427 -0.462,0 -0.777,0.119 -0.308,0.112 -0.539,0.259 -0.224,0.14 -0.392,0.259 -0.161,0.112 -0.322,0.112 -0.126,0 -0.217,-0.063 -0.091,-0.07 -0.154,-0.168 z" />
  <path
     id="path1343"
     style="font-weight:normal;font-size:medium;font-family:Lato-Regular, Lato;fill:#02303a;fill-opacity:1;fill-rule:evenodd;stroke:none;stroke-width:1"
     d="M 355.49375,397.689 V 408 h -1.246 v -10.311 z" />
  <path
     id="path1345"
     style="font-weight:normal;font-size:medium;font-family:Lato-Regular, Lato;fill:#02303a;fill-opacity:1;fill-rule:evenodd;stroke:none;stroke-width:1"
     d="m 366.03138,402.169 q -0.056,0.077 -0.11201,0.119 -0.056,0.042 -0.154,0.042 -0.105,0 -0.231,-0.084 -0.126,-0.091 -0.31499,-0.196 -0.18201,-0.105 -0.45501,-0.189 -0.266,-0.091 -0.65799,-0.091 -0.52501,0 -0.92401,0.189 -0.399,0.182 -0.672,0.532 -0.266,0.35 -0.406,0.847 -0.133,0.497 -0.133,1.113 0,0.644 0.14701,1.148 0.14699,0.497 0.41299,0.84 0.273,0.336 0.651,0.518 0.385,0.175 0.861,0.175 0.455,0 0.749,-0.105 0.294,-0.112 0.483,-0.245 0.196,-0.133 0.322,-0.238 0.133,-0.112 0.25901,-0.112 0.15399,0 0.238,0.119 l 0.34999,0.455 q -0.231,0.287 -0.525,0.49 -0.29399,0.203 -0.637,0.343 -0.336,0.133 -0.707,0.196 -0.371,0.063 -0.756,0.063 -0.66499,0 -1.239,-0.245 -0.567,-0.245 -0.987,-0.707 -0.42,-0.469 -0.65799,-1.148 -0.23801,-0.679 -0.23801,-1.547 0,-0.791 0.217,-1.463 0.224,-0.672 0.644,-1.155 0.427,-0.49 1.043,-0.763 0.623,-0.273 1.428,-0.273 0.749,0 1.316,0.245 0.574,0.238 1.015,0.679 z" />
  <path
     id="path1347"
     style="font-weight:normal;font-size:medium;font-family:Lato-Regular, Lato;fill:#02303a;fill-opacity:1;fill-rule:evenodd;stroke:none;stroke-width:1"
     d="m 371.61125,404.808 q -0.861,0.028 -1.47,0.14 -0.602,0.105 -0.987,0.28 -0.378,0.175 -0.553,0.413 -0.168,0.238 -0.168,0.532 0,0.28 0.091,0.483 0.091,0.203 0.245,0.336 0.161,0.126 0.371,0.189 0.217,0.056 0.462,0.056 0.329,0 0.602,-0.063 0.273,-0.07 0.511,-0.196 0.245,-0.126 0.462,-0.301 0.224,-0.175 0.434,-0.399 z m -4.025,-2.898 q 0.588,-0.567 1.267,-0.847 0.679,-0.28 1.505,-0.28 0.595,0 1.057,0.196 0.462,0.196 0.777,0.546 0.315,0.35 0.476,0.847 0.161,0.497 0.161,1.092 V 408 h -0.553 q -0.182,0 -0.28,-0.056 -0.098,-0.063 -0.154,-0.238 l -0.14,-0.672 q -0.28,0.259 -0.546,0.462 -0.266,0.196 -0.56,0.336 -0.294,0.133 -0.63,0.203 -0.329,0.077 -0.735,0.077 -0.413,0 -0.777,-0.112 -0.364,-0.119 -0.637,-0.35 -0.266,-0.231 -0.427,-0.581 -0.154,-0.357 -0.154,-0.84 0,-0.42 0.231,-0.805 0.231,-0.392 0.749,-0.693 0.518,-0.301 1.351,-0.49 0.833,-0.196 2.044,-0.224 v -0.553 q 0,-0.826 -0.357,-1.246 -0.357,-0.427 -1.043,-0.427 -0.462,0 -0.777,0.119 -0.308,0.112 -0.539,0.259 -0.224,0.14 -0.392,0.259 -0.161,0.112 -0.322,0.112 -0.126,0 -0.217,-0.063 -0.091,-0.07 -0.154,-0.168 z" />
  <path
     id="path1349"
     style="font-weight:normal;font-size:medium;font-family:Lato-Regular, Lato;fill:#02303a;fill-opacity:1;fill-rule:evenodd;stroke:none;stroke-width:1"
     d="m 379.64856,402.169 q -0.056,0.077 -0.112,0.119 -0.056,0.042 -0.154,0.042 -0.105,0 -0.231,-0.084 -0.126,-0.091 -0.315,-0.196 -0.182,-0.105 -0.455,-0.189 -0.266,-0.091 -0.658,-0.091 -0.525,0 -0.924,0.189 -0.399,0.182 -0.672,0.532 -0.266,0.35 -0.406,0.847 -0.133,0.497 -0.133,1.113 0,0.644 0.147,1.148 0.147,0.497 0.413,0.84 0.273,0.336 0.651,0.518 0.385,0.175 0.861,0.175 0.455,0 0.749,-0.105 0.294,-0.112 0.483,-0.245 0.196,-0.133 0.322,-0.238 0.133,-0.112 0.259,-0.112 0.154,0 0.238,0.119 l 0.35,0.455 q -0.231,0.287 -0.525,0.49 -0.294,0.203 -0.637,0.343 -0.336,0.133 -0.707,0.196 -0.371,0.063 -0.756,0.063 -0.665,0 -1.239,-0.245 -0.567,-0.245 -0.987,-0.707 -0.42,-0.469 -0.658,-1.148 -0.238,-0.679 -0.238,-1.547 0,-0.791 0.217,-1.463 0.224,-0.672 0.644,-1.155 0.427,-0.49 1.043,-0.763 0.623,-0.273 1.428,-0.273 0.749,0 1.316,0.245 0.574,0.238 1.015,0.679 z" />
  <path
     id="path1351"
     style="font-weight:normal;font-size:medium;font-family:Lato-Regular, Lato;fill:#02303a;fill-opacity:1;fill-rule:evenodd;stroke:none;stroke-width:1"
     d="m 382.63844,401.854 q 0.455,-0.483 1.008,-0.77 0.553,-0.287 1.274,-0.287 0.581,0 1.022,0.196 0.448,0.189 0.742,0.546 0.301,0.35 0.455,0.847 0.154,0.497 0.154,1.099 V 408 h -1.253 v -4.515 q 0,-0.805 -0.371,-1.246 -0.364,-0.448 -1.113,-0.448 -0.553,0 -1.036,0.266 -0.476,0.266 -0.882,0.721 V 408 h -1.253 v -10.311 h 1.253 z" />
  <path
     id="path1353"
     style="font-weight:normal;font-size:medium;font-family:Lato-Regular, Lato;fill:#02303a;fill-opacity:1;fill-rule:evenodd;stroke:none;stroke-width:1"
     d="m 393.95175,403.681 q 0,-0.434 -0.126,-0.791 -0.119,-0.364 -0.357,-0.623 -0.231,-0.266 -0.567,-0.406 -0.336,-0.147 -0.763,-0.147 -0.896,0 -1.421,0.525 -0.518,0.518 -0.644,1.442 z m 1.008,3.325 q -0.231,0.28 -0.553,0.49 -0.322,0.203 -0.693,0.336 -0.364,0.133 -0.756,0.196 -0.392,0.07 -0.777,0.07 -0.735,0 -1.358,-0.245 -0.616,-0.252 -1.071,-0.728 -0.448,-0.483 -0.7,-1.19 -0.252,-0.707 -0.252,-1.624 0,-0.742 0.224,-1.386 0.231,-0.644 0.658,-1.113 0.427,-0.476 1.043,-0.742 0.616,-0.273 1.386,-0.273 0.637,0 1.176,0.217 0.546,0.21 0.938,0.616 0.399,0.399 0.623,0.994 0.224,0.588 0.224,1.344 0,0.294 -0.063,0.392 -0.063,0.098 -0.238,0.098 h -4.739 q 0.021,0.672 0.182,1.169 0.168,0.497 0.462,0.833 0.294,0.329 0.7,0.497 0.406,0.161 0.91,0.161 0.469,0 0.805,-0.105 0.343,-0.112 0.588,-0.238 0.245,-0.126 0.406,-0.231 0.168,-0.112 0.287,-0.112 0.154,0 0.238,0.119 z" />
  <polygon
     id="polygon33"
     points="416,434.5 361,467 306,434.5 306,369.5 361,337 416,369.5 "
     style="fill:none;fill-rule:evenodd;stroke:#02303a;stroke-width:1;stroke-opacity:1" />
  <path
     id="path1533"
     d="m 56.594832,298.986 q 0.174,0 0.276,0.102 0.102,0.102 0.102,0.264 V 300 h -5.736 v -0.366 q 0,-0.114 0.048,-0.234 0.048,-0.12 0.15,-0.222 l 2.754,-2.766 q 0.342,-0.348 0.624,-0.666 0.282,-0.324 0.48,-0.648 0.198,-0.324 0.306,-0.654 0.108,-0.336 0.108,-0.714 0,-0.378 -0.12,-0.66 -0.12,-0.288 -0.33,-0.474 -0.204,-0.186 -0.486,-0.276 -0.282,-0.096 -0.606,-0.096 -0.33,0 -0.606,0.096 -0.276,0.096 -0.492,0.27 -0.21,0.168 -0.354,0.402 -0.144,0.234 -0.204,0.516 -0.072,0.21 -0.198,0.282 -0.12,0.066 -0.342,0.036 l -0.558,-0.096 q 0.084,-0.588 0.324,-1.038 0.246,-0.456 0.612,-0.762 0.372,-0.306 0.846,-0.462 0.474,-0.162 1.026,-0.162 0.546,0 1.02,0.162 0.474,0.162 0.822,0.474 0.348,0.306 0.546,0.75 0.198,0.444 0.198,1.008 0,0.48 -0.144,0.894 -0.144,0.408 -0.39,0.78 -0.246,0.372 -0.57,0.726 -0.318,0.354 -0.678,0.714 l -2.268,2.316 q 0.24,-0.066 0.486,-0.102 0.246,-0.042 0.474,-0.042 z"
     style="font-weight:normal;font-size:medium;font-family:Lato-Regular, Lato;fill:#02303a;fill-rule:evenodd;stroke:none;stroke-width:1" />
  <circle
     style="fill:none;fill-rule:evenodd;stroke:#02303a;stroke-width:1"
     r="9"
     cy="296"
     cx="54"
     id="Oval-2-Copy" />
  <polygon
     transform="translate(96,378)"
     points="27.074632,29.025833 27.082644,25.002 31.047745,20.040167 31.511332,10.646167 30.782184,7.005 27.082644,2 17.917356,3.1678333 14.217816,7.005 13.489812,10.646167 13.952255,20.040167 17.917356,25.002 17.925368,29.025833 2.3316715,36.739833 0,44 45,44 42.668329,36.739833 "
     id="Fill-12"
     style="fill:none;fill-rule:evenodd;stroke:none;stroke-width:1" />
  <polygon
     transform="translate(96,378)"
     style="fill:none;fill-rule:evenodd;stroke:#02303a;stroke-width:1;stroke-linejoin:round"
     points="17.917356,25.143684 17.925368,29.138421 2.3316715,36.793263 0,44 45,44 42.668329,36.793263 27.074632,29.138421 27.082644,25.143684 31.047745,20.220316 31.510188,10.895789 31.510188,4.0526316 27.074632,0 18.78558,0 13.952255,4.0526316 13.488668,10.895789 13.952255,20.220316 "
     id="Stroke-13" />
  <polyline
     transform="translate(96,378)"
     style="fill:none;fill-rule:evenodd;stroke:#02303a;stroke-width:1"
     points="13 10 21.1290323 8.36363636 27.516129 4 31 10"
     id="Path-3" />
  <polyline
     transform="translate(96,378)"
     style="fill:none;fill-rule:evenodd;stroke:#02303a;stroke-width:1"
     points="18 29 22.7058824 33 28 29"
     id="Path-2" />
  <rect
     id="Rectangle-path-Copy-2"
     x="479"
     y="273"
     width="410"
     height="276"
     rx="5"
     style="fill:none;fill-rule:nonzero;stroke:#02303a;stroke-width:1" />
</svg>
